{"title":"Destination Wedding 2018 720p WEB-DL x264 ESub [MW]","magnet":"magnet:?xt=urn:btih:e65fdfa1f7bbd343d52998d2bf6ca9f882120b36&dn=Destination+Wedding+2018+720p+WEB-DL+x264+ESub+%5BMW%5D&tr=udp%3A%2F%2Ftracker.leechers-paradise.org%3A6969&tr=udp%3A%2F%2Fzer0day.ch%3A1337&tr=udp%3A%2F%2Fopen.demonii.com%3A1337&tr=udp%3A%2F%2Ftracker.coppersurfer.tk%3A6969&tr=udp%3A%2F%2Fexodus.desync.com%3A6969","uploader":"MFreaky","categoryP":"video","categoryS":"hd___movies","size":"881401083","seeders":"18","leechers":"14","description":" <a href=\"https://pichub.site/image/Dg1rQ\" rel=\"nofollow\" target=\"_NEW\">https://pichub.site/image/Dg1rQ</a> <a href=\"\nhttps://pichub.site/image/DgFN9\" rel=\"nofollow\" target=\"_NEW\">\nhttps://pichub.site/image/DgFN9</a> <a href=\"\nhttps://pichub.site/image/DgTVd\" rel=\"nofollow\" target=\"_NEW\">\nhttps://pichub.site/image/DgTVd</a> <a href=\"\nhttps://pichub.site/image/DgQ1u\" rel=\"nofollow\" target=\"_NEW\">\nhttps://pichub.site/image/DgQ1u</a> <a href=\"\nhttps://pichub.site/image/DgbRR\" rel=\"nofollow\" target=\"_NEW\">\nhttps://pichub.site/image/DgbRR</a>\r\n\r\nIMDB <a href=\"\nhttps://www.imdb.com/title/tt6987770/\" rel=\"nofollow\" target=\"_NEW\">\nhttps://www.imdb.com/title/tt6987770/</a>\r\n\r\nVideo\r\nID : 1\r\nFormat : AVC\r\nFormat/Info : Advanced Video Codec\r\nFormat profile : High@L4.1\r\nFormat settings : CABAC / 4 Ref Frames\r\nFormat settings, CABAC : Yes\r\nFormat settings, RefFrames : 4 frames\r\nCodec ID : V_MPEG4/ISO/AVC\r\nDuration : 1 h 26 min\r\nBit rate : 1 250 kb/s\r\nWidth : 1 280 pixels\r\nHeight : 534 pixels\r\nDisplay aspect ratio : 2.40:1\r\nFrame rate mode : Constant\r\nFrame rate : 23.976 (24000/1001) FPS\r\nColor space : YUV\r\nChroma subsampling : 4:2:0\r\nBit depth : 8 bits\r\nScan type : Progressive\r\nBits/(Pixel*Frame) : 0.076\r\nStream size : 761 MiB (90%)\r\nWriting library : x264 core 155 r2901 7d0ff22\r\nDefault : Yes\r\nForced : No\r\n\r\nAudio\r\nID : 2\r\nFormat : AAC\r\nFormat/Info : Advanced Audio Codec\r\nFormat profile : HE-AAC / LC\r\nFormat settings : Explicit\r\nCodec ID : A_AAC-2\r\nDuration : 1 h 26 min\r\nBit rate : 127 kb/s\r\nChannel(s) : 2 channels\r\nChannel positions : Front: L R\r\nSampling rate : 48.0 kHz / 24.0 kHz\r\nFrame rate : 23.438 FPS (1024 SPF)\r\nCompression mode : Lossy\r\nStream size : 78.6 MiB (9%)\r\nLanguage : English\r\nDefault : Yes\r\nForced : No","last_updated":"2018-09-08T12:27:45.821Z","parsed":{"xt":"urn:btih:e65fdfa1f7bbd343d52998d2bf6ca9f882120b36","dn":"Destination Wedding 2018 720p WEB-DL x264 ESub [MW]","tr":["udp://exodus.desync.com:6969","udp://open.demonii.com:1337","udp://tracker.coppersurfer.tk:6969","udp://tracker.leechers-paradise.org:6969","udp://zer0day.ch:1337"],"infoHash":"e65fdfa1f7bbd343d52998d2bf6ca9f882120b36","infoHashBuffer":{"type":"Buffer","data":[230,95,223,161,247,187,211,67,213,41,152,210,191,108,169,248,130,18,11,54]},"name":"Destination Wedding 2018 720p WEB-DL x264 ESub [MW]","announce":["udp://exodus.desync.com:6969","udp://open.demonii.com:1337","udp://tracker.coppersurfer.tk:6969","udp://tracker.leechers-paradise.org:6969","udp://zer0day.ch:1337"],"urlList":[]}}